<svg width="421" height="74" viewBox="0 0 421 74" fill="none" xmlns="http://www.w3.org/2000/svg">
<path d="M343 0H349.5L339.5 7L334.5 18.5L333.5 50L338 63.5L345 68L350.5 63.5L354 53.5V31.5L351.5 15.5L345 18.5L341 33.5L342 40.5L346.5 39.5V33.5H345V31.5L348.5 29.5L349.5 44L343 61L338 33.5L341 14.5L351.5 3.5L357.5 10V57.5L351.5 73.5H338L329.5 59.5V17L333.5 5L343 0Z" fill="url(#paint0_linear_2_36)"/>
<path d="M94 58L106 61.5L111.5 49L113.5 30L107 17.5H102.5L104.5 42.5L106 31.5H111.5L109 47.5L101.5 54.5L98 15.5L106 8L116 15.5L119.5 31.5L116 51.5L109 63.5L94 66.5V73.5L111.5 69L119.5 58L123.5 44V24.5L119.5 11L106 0H94V58Z" fill="url(#paint1_linear_2_36)"/>
<path d="M128 29V1H139L143 1.5L150 9V28L146.5 35L139 38L155.5 73L145.5 73.5L137 46.5H134.5V73H128V31.5H140L145.5 25.5V14L143 9H134.5V21H139L140 17.5L138.5 17L138 12.5L142 14L143 19L140 25.5L128 29Z" fill="url(#paint2_linear_2_36)"/>
<path d="M160.5 73.5V1H181V8H168.5V31.5H178V40.5H168.5V66.5H181V73.5H160.5Z" fill="url(#paint3_linear_2_36)"/>
<path d="M192.5 42.5L202.5 1H208L217.5 73.5H210L208 51.5H195.5V73.5H186V69L192.5 68L186 66.5L192.5 45.5H208L205.5 15.5H202.5L198.5 42.5H192.5Z" fill="url(#paint4_linear_2_36)"/>
<path d="M224 0H230L239.5 45.5L248 0H255L257.5 73.5H251V32.5L242.5 54.5H237.5L231.5 31.5V73H224V0Z" fill="url(#paint5_linear_2_36)"/>
<path d="M275.5 8C278 10.8333 283.1 16.6 283.5 17V12L280 3.5L274.5 0H264V73.5H267L270 46.5L272.5 40.5H277L286 52.5L284.5 62.5C283.333 63.5 280.6 65.7 279 66.5C277.4 67.3 276 66.8333 275.5 66.5V52.5L279 54.5V57.5L278 61L282 57.5L281 51.5L274.5 46.5C272.5 47.3 270.667 64.8333 270 73.5H280L289.5 62.5L288 46.5C283.6 37.7 274.833 32.8333 271 31.5L277 29.5L283.5 20L274.5 12H272.5L270 14.5V18.5L274.5 20L273 17L274.5 15.5L279 20L273 25L267 21V12.5L270 8H275.5Z" fill="url(#paint6_linear_2_36)"/>
<path d="M309 0H315.5L305.5 7L300.5 18.5L299.5 50L304 63.5L311 68L316.5 63.5L320 53.5V31.5L317.5 15.5L311 18.5L307 33.5L308 40.5L312.5 39.5V33.5H311V31.5L314.5 29.5L315.5 44L309 61L304 33.5L307 14.5L317.5 3.5L323.5 10V57.5L317.5 73.5H304L295.5 59.5V17L299.5 5L309 0Z" fill="url(#paint7_linear_2_36)"/>
<path d="M364 73L365.5 0H372.5L371.5 18.5L380 0H388L371.5 28L392.5 73H384L371.5 38.5L372.5 73H364Z" fill="url(#paint8_linear_2_36)"/>
<path d="M412.5 16.5L409.5 15.5V17.5L411.5 19.5L414.5 18.5V15.5L413.5 10L406.5 7.5L402 11V18.5L420 47L421 64L416 73L404 73.5L394 64.5L395.5 51.5L403.5 47.5L411 52L409.5 61L405.5 63L402 62.5L401 58L405 56.5L403.5 58L405 60L407.5 59L408 55.5L403.5 53L399.5 57.5L400 63L403 66.5H409L413.5 59.5L412.5 49L399.5 28L395 18.5L397 4L407 0L419 6V17.5L416 22L408 22.5L405 14.5L407.5 11L411.5 12.5L412.5 16.5Z" fill="url(#paint9_linear_2_36)"/>
<path fill-rule="evenodd" clip-rule="evenodd" d="M25.5989 73C39.5547 73 50.8681 61.6866 50.8681 47.7308C50.8681 33.775 39.5547 22.4615 25.5989 22.4615C11.6431 22.4615 0.329666 33.775 0.329666 47.7308C0.329666 61.6866 11.6431 73 25.5989 73ZM23.2034 25.6703C19.5935 25.6703 3.82483 32.3632 8.36275 36.9011C9.56605 38.1044 10.7693 37.3022 10.7693 37.3022C10.7693 37.3022 15.7578 30.9343 23.2034 29.2801C26.8133 28.478 25.61 25.6703 23.2034 25.6703Z" fill="url(#paint10_radial_2_36)"/>
<path fill-rule="evenodd" clip-rule="evenodd" d="M36.4286 22.4615C42.6312 22.4615 47.6593 17.4334 47.6593 11.2308C47.6593 5.02819 42.6312 0 36.4286 0C30.226 0 25.1978 5.02819 25.1978 11.2308C25.1978 17.4334 30.226 22.4615 36.4286 22.4615ZM35.5113 2.40661C34.0579 2.40661 27.7092 5.11507 29.5362 6.95147C30.0207 7.43842 30.5052 7.11379 30.5052 7.11379C30.5052 7.11379 32.5136 4.53685 35.5113 3.86739C36.9647 3.54282 36.4802 2.40661 35.5113 2.40661Z" fill="url(#paint11_radial_2_36)"/>
<path fill-rule="evenodd" clip-rule="evenodd" d="M62.9011 37.7033C71.3189 37.7033 78.1429 30.8793 78.1429 22.4615C78.1429 14.0438 71.3189 7.21979 62.9011 7.21979C54.4833 7.21979 47.6593 14.0438 47.6593 22.4615C47.6593 30.8793 54.4833 37.7033 62.9011 37.7033ZM62.7729 9.62637C60.0276 9.62637 48.0356 14.5919 51.4866 17.9586C52.4017 18.8514 53.3168 18.2562 53.3168 18.2562C53.3168 18.2562 57.1105 13.5318 62.7729 12.3045C65.5182 11.7094 64.6031 9.62637 62.7729 9.62637Z" fill="url(#paint12_radial_2_36)"/>
<path fill-rule="evenodd" clip-rule="evenodd" d="M63.3022 58.5604C68.3972 58.5604 72.5275 54.4301 72.5275 49.3352C72.5275 44.2402 68.3972 40.1099 63.3022 40.1099C58.2072 40.1099 54.0769 44.2402 54.0769 49.3352C54.0769 54.4301 58.2072 58.5604 63.3022 58.5604ZM63.5882 42.5165C62.1348 42.5165 55.7861 45.225 57.6132 47.0614C58.0976 47.5483 58.5821 47.2237 58.5821 47.2237C58.5821 47.2237 60.5905 44.6467 63.5882 43.9773C65.0416 43.6527 64.5571 42.5165 63.5882 42.5165Z" fill="url(#paint13_radial_2_36)"/>
<defs>
<linearGradient id="paint0_linear_2_36" x1="94" y1="36.75" x2="421" y2="36.75" gradientUnits="userSpaceOnUse">
<stop stop-color="#97652E"/>
<stop offset="0.5" stop-color="#FFF19E"/>
<stop offset="1" stop-color="#95622B"/>
</linearGradient>
<linearGradient id="paint1_linear_2_36" x1="94" y1="36.75" x2="421" y2="36.75" gradientUnits="userSpaceOnUse">
<stop stop-color="#97652E"/>
<stop offset="0.5" stop-color="#FFF19E"/>
<stop offset="1" stop-color="#95622B"/>
</linearGradient>
<linearGradient id="paint2_linear_2_36" x1="94" y1="36.75" x2="421" y2="36.75" gradientUnits="userSpaceOnUse">
<stop stop-color="#97652E"/>
<stop offset="0.5" stop-color="#FFF19E"/>
<stop offset="1" stop-color="#95622B"/>
</linearGradient>
<linearGradient id="paint3_linear_2_36" x1="94" y1="36.75" x2="421" y2="36.75" gradientUnits="userSpaceOnUse">
<stop stop-color="#97652E"/>
<stop offset="0.5" stop-color="#FFF19E"/>
<stop offset="1" stop-color="#95622B"/>
</linearGradient>
<linearGradient id="paint4_linear_2_36" x1="94" y1="36.75" x2="421" y2="36.75" gradientUnits="userSpaceOnUse">
<stop stop-color="#97652E"/>
<stop offset="0.5" stop-color="#FFF19E"/>
<stop offset="1" stop-color="#95622B"/>
</linearGradient>
<linearGradient id="paint5_linear_2_36" x1="94" y1="36.75" x2="421" y2="36.75" gradientUnits="userSpaceOnUse">
<stop stop-color="#97652E"/>
<stop offset="0.5" stop-color="#FFF19E"/>
<stop offset="1" stop-color="#95622B"/>
</linearGradient>
<linearGradient id="paint6_linear_2_36" x1="94" y1="36.75" x2="421" y2="36.75" gradientUnits="userSpaceOnUse">
<stop stop-color="#97652E"/>
<stop offset="0.5" stop-color="#FFF19E"/>
<stop offset="1" stop-color="#95622B"/>
</linearGradient>
<linearGradient id="paint7_linear_2_36" x1="94" y1="36.75" x2="421" y2="36.75" gradientUnits="userSpaceOnUse">
<stop stop-color="#97652E"/>
<stop offset="0.5" stop-color="#FFF19E"/>
<stop offset="1" stop-color="#95622B"/>
</linearGradient>
<linearGradient id="paint8_linear_2_36" x1="94" y1="36.75" x2="421" y2="36.75" gradientUnits="userSpaceOnUse">
<stop stop-color="#97652E"/>
<stop offset="0.5" stop-color="#FFF19E"/>
<stop offset="1" stop-color="#95622B"/>
</linearGradient>
<linearGradient id="paint9_linear_2_36" x1="94" y1="36.75" x2="421" y2="36.75" gradientUnits="userSpaceOnUse">
<stop stop-color="#97652E"/>
<stop offset="0.5" stop-color="#FFF19E"/>
<stop offset="1" stop-color="#95622B"/>
</linearGradient>
<radialGradient id="paint10_radial_2_36" cx="0" cy="0" r="1" gradientUnits="userSpaceOnUse" gradientTransform="translate(25.5989 47.7308) rotate(90) scale(25.2692)">
<stop stop-color="#FFF19E"/>
<stop offset="1" stop-color="#97652E"/>
</radialGradient>
<radialGradient id="paint11_radial_2_36" cx="0" cy="0" r="1" gradientUnits="userSpaceOnUse" gradientTransform="translate(36.4286 11.2308) rotate(90) scale(11.2308)">
<stop stop-color="#FFF19E"/>
<stop offset="1" stop-color="#97652E"/>
</radialGradient>
<radialGradient id="paint12_radial_2_36" cx="0" cy="0" r="1" gradientUnits="userSpaceOnUse" gradientTransform="translate(62.9011 22.4615) rotate(90) scale(15.2418)">
<stop stop-color="#FFF19E"/>
<stop offset="1" stop-color="#97652E"/>
</radialGradient>
<radialGradient id="paint13_radial_2_36" cx="0" cy="0" r="1" gradientUnits="userSpaceOnUse" gradientTransform="translate(63.3022 49.3352) rotate(90) scale(9.22527)">
<stop stop-color="#FFF19E"/>
<stop offset="1" stop-color="#97652E"/>
</radialGradient>
</defs>
</svg>
